<?xml version="1.0" encoding="UTF-8"?>
<svg width="375px" height="32px" viewBox="0 0 375 32" version="1.1" xmlns="http://www.w3.org/2000/svg" xmlns:xlink="http://www.w3.org/1999/xlink">
    <title>Shape</title>
    <g id="La-liga" stroke="none" stroke-width="1" fill="none" fill-rule="evenodd">
        <g id="VSignIn" transform="translate(0.000000, -635.000000)" fill="#FFFFFF" fill-rule="nonzero">
            <path d="M254.755435,635 C253.675518,642.706175 251.198992,650.154577 247.445691,656.984797 L247.445691,657.056643 C247.276373,657.284599 247.007249,657.418179 246.721954,657.415872 C246.596876,657.427054 246.471209,657.402104 246.360085,657.344026 L246.287712,657.344026 L229.279891,648.363308 C232.482381,644.30576 235.06717,639.803275 236.951504,635 L254.755435,635 Z M235.30165,659.015296 C233.763355,661.668294 232.020779,664.200551 230.089331,666.589674 L203.804348,666.589674 C211.952823,663.537416 219.269571,658.652977 225.174858,652.32337 L234.929342,657.838693 C235.349822,658.071271 235.513219,658.587654 235.30165,659.015296 L235.30165,659.015296 Z M164.0625,666.589674 L127.377717,666.589674 C127.379909,666.473045 127.433603,666.363641 127.523872,666.291878 L127.523872,666.291878 L141.262396,650.285326 C147.411087,657.569667 155.2483,663.174056 164.0625,666.589674 L164.0625,666.589674 Z M138.586957,646.881272 L129.700139,656.105862 C129.587166,656.195776 129.462634,656.270232 129.329855,656.327252 C129.031066,656.462681 128.679733,656.404332 128.441173,656.179658 C121.981272,650.194782 116.771606,642.997086 113.111413,635 L131.9959,635 C133.735777,639.195663 135.946884,643.181484 138.586957,646.881272 L138.586957,646.881272 Z M224.184783,635 C223.490293,636.672058 222.68592,638.303095 221.776186,639.883943 C221.706579,639.986 221.595941,640.058115 221.468785,640.084308 C221.341629,640.1105 221.208454,640.088609 221.098768,640.023484 L210.9375,635 L224.184783,635 Z M155.910326,635 L151.671538,638.919153 C151.594469,638.986724 151.5174,639.054296 151.440332,639.054296 C151.257638,639.098894 151.061993,639.074389 150.900849,638.986724 C149.375165,637.774232 147.981883,636.439535 146.73913,635 L155.910326,635 Z M159.162153,636.019022 L159.162153,636.019022 L150.92651,645.215941 C150.77812,645.409052 150.77812,645.67458 150.92651,645.867691 L150.92651,645.867691 C155.284862,649.572994 160.427873,652.293053 165.988092,653.833527 C171.524272,655.421809 177.352297,655.792788 183.052938,654.919777 C183.201328,654.919777 183.349718,654.774944 183.423913,654.557694 L183.423913,654.340444 L182.385183,647.460858 C173.377626,646.868254 164.999881,642.740593 159.162153,636.019022 L159.162153,636.019022 Z M187.123115,659.456522 L187.26799,659.456522 C192.819109,658.464683 198.084861,656.282154 202.697136,653.061507 C207.282544,649.868536 211.11356,645.725123 213.924918,640.918165 C213.996819,640.806673 214.014081,640.668924 213.971888,640.543364 C213.929695,640.417803 213.832565,640.317878 213.707606,640.271478 L213.707606,640.271478 L208.057496,637.038043 C201.953242,643.567767 193.419489,647.332895 184.442935,647.456888 L184.442935,647.456888 L186.616054,659.097251 C186.692161,659.310813 186.894774,659.454372 187.123115,659.456522 Z M108.016304,666.589674 L77.6173974,666.589674 C72.7307966,659.719498 68.655403,652.306621 65.4725557,644.498993 C64.2212689,641.332662 63.1171924,638.166331 62.1603261,635 L94.1785453,635 C96.7083792,646.325177 101.407553,657.052736 108.016304,666.589674 L108.016304,666.589674 Z M301.630435,635.073636 C301.630435,636.84089 301.556726,638.534509 301.409309,640.228128 C300.841894,649.183185 299.183494,658.035704 296.470831,666.589674 L260.869565,666.589674 C267.487611,657.052736 272.193395,646.325177 274.726787,635 L301.630435,635 L301.630435,635.073636 Z M40.7608696,666.589674 L0,666.589674 L0,635 L32.8934223,635 C34.3431957,645.778984 36.9811785,656.371113 40.7608696,666.589674 Z M375,635 L375,666.589674 L328.125,666.589674 C331.894343,656.365748 334.550783,645.776489 336.049641,635 L375,635 Z" id="Shape"></path>
        </g>
    </g>
</svg>