<?xml version="1.0" encoding="UTF-8"?>
<svg width="96px" height="32px" viewBox="0 0 96 32" version="1.1" xmlns="http://www.w3.org/2000/svg" xmlns:xlink="http://www.w3.org/1999/xlink">
    <title>logo</title>
    <g id="Symbols" stroke="none" stroke-width="1" fill="none" fill-rule="evenodd">
        <g id="images-/-logo-copy" fill-rule="nonzero">
            <g id="logo" transform="translate(47.514552, 16.095614) scale(-1, 1) rotate(-180.000000) translate(-47.514552, -16.095614) translate(0.014552, 0.595614)">
                <g id="L" transform="translate(35.385954, 8.506395)" fill="#FFFFFF">
                    <polygon id="path14" points="7.59527392 0 0 0 0 13.2314709 3.43642474 13.2314709 3.43642474 3.00581374 7.59527392 3.00581374"></polygon>
                </g>
                <g id="a" transform="translate(43.000000, 9.000000)" fill="#FFFFFF">
                    <path d="M6.09355191,8.12473588 C4.56373185,8.12473588 3.58402411,6.98456461 3.58402411,5.58575591 C3.58402411,4.11687137 4.51261372,2.90831691 5.99063859,2.90831691 C7.41720679,2.90831691 8.60240264,3.9614858 8.60240264,5.49875353 C8.60240264,7.05328633 7.50251652,8.12473588 6.09355191,8.12473588 M0.336499478,5.53328366 C0.336499478,8.48696368 2.51934518,11.095681 5.45779132,11.095681 C6.74556196,11.095681 7.55397318,10.6633773 8.49915079,9.79944706 L8.49915079,10.8871461 L11.6617042,10.8871461 L11.6617042,0.282334572 L8.4473556,0.282334572 L8.4473556,1.31891546 C8.4473556,1.31891546 7.29601282,0.0226815543 5.28615628,0.0226815543 C2.34703308,0.0226815543 0.336499478,2.13172758 0.336499478,5.53328366" id="path26-0"></path>
                </g>
                <g id="l" transform="translate(56.573877, 9.274924)" fill="#FFFFFF">
                    <polygon id="path30-1" points="7.78620521 0 0.189915701 0 0.189915701 13.2314709 3.62735604 13.2314709 3.62735604 3.00581374 7.78620521 3.00581374"></polygon>
                </g>
                <g id="i" transform="translate(65.477166, 9.275060)" fill="#FFFFFF">
                    <path d="M3.50514647,7.10542736e-15 L0.308062902,7.10542736e-15 L0.308062902,10.6048115 L3.50514647,10.6048115 L3.50514647,7.10542736e-15 Z M-2.88657986e-14,13.2998541 C-2.88657986e-14,14.3713036 0.857836696,15.2521604 1.92454681,15.2521604 C2.9899028,15.2521604 3.86602015,14.4054952 3.86602015,13.3347228 C3.86602015,12.2463467 2.9899028,11.3658284 1.88967815,11.3658284 C0.841248694,11.3658284 -2.88657986e-14,12.2121551 -2.88657986e-14,13.2998541" id="path32"></path>
                </g>
                <g id="g" transform="translate(70.343381, 5.532743)" fill="#FFFFFF">
                    <path d="M5.35788436,11.8095023 C3.86259443,11.8095023 3.12324347,10.5830058 3.12324347,9.27018385 C3.12324347,7.90556675 3.93131616,6.78232202 5.34129636,6.78232202 C6.93949961,6.78232202 7.79699778,8.06095232 7.79699778,9.25224172 C7.79699778,10.6693311 7.00652869,11.8095023 5.35788436,11.8095023 M0.0131622807,9.25224172 C0.0131622807,12.119935 1.8351343,14.5556631 4.61921046,14.5556631 C5.96013041,14.5556631 6.87010083,14.1233594 7.78007125,13.1565158 L7.78007125,14.3471282 L10.8403884,14.3471282 L10.8403884,5.00266633 C10.8403884,1.72162716 8.38164023,0.0120473168 5.42626756,0.0120473168 C2.83109151,0.0120473168 0.562936075,1.32419216 0.221020107,3.70846361 L3.81215336,3.70846361 C4.25698265,2.98265387 4.70316606,2.84554895 5.49566634,2.84554895 C6.61214046,2.84554895 7.64228927,3.36214674 7.64228927,4.51924454 C7.64228927,4.79650116 7.66023139,5.03821205 7.6260398,5.31377601 C7.00652869,4.7616325 5.85586297,4.08761795 4.60126834,4.08761795 C1.87000296,4.08761795 0.0131622807,6.36829902 0.0131622807,9.25224172" id="path36"></path>
                </g>
                <g id="a" transform="translate(82.222009, 8.992759)" fill="#FFFFFF">
                    <path d="M6.09355191,8.12473588 C4.56339332,8.12473588 3.58470117,6.98456461 3.58470117,5.58575591 C3.58470117,4.11687137 4.51193666,2.90831691 5.98962299,2.90831691 C7.41585267,2.90831691 8.60206411,3.9614858 8.60206411,5.49875353 C8.60206411,7.05328633 7.50319358,8.12473588 6.09355191,8.12473588 M0.335822416,5.53328366 C0.335822416,8.48696368 2.51799106,11.095681 5.4564372,11.095681 C6.74556196,11.095681 7.55397318,10.6633773 8.49881226,9.79944706 L8.49881226,10.8871461 L11.6613657,10.8871461 L11.6613657,0.282334572 L8.44701707,0.282334572 L8.44701707,1.31891546 C8.44701707,1.31891546 7.29601282,0.0226815543 5.28547922,0.0226815543 C2.34703308,0.0226815543 0.335822416,2.13172758 0.335822416,5.53328366" id="path40"></path>
                </g>
                <g id="fucsia" transform="translate(4.236901, 20.488989)" fill="#891B8E">
                    <path d="M0.338530661,3.38530661 C0.310432617,3.33114171 0.31212527,3.26343558 0.34800952,3.20927067 C0.364936053,3.18455793 0.386940546,3.16560022 0.411653284,3.15273605 L5.71304344,0.0710914389 L5.72523055,0.0646593563 C5.78074958,0.0345301275 5.85082542,0.0368998421 5.90566739,0.0758308682 C5.92293245,0.0883565026 5.93748927,0.102913321 5.94866078,0.119839854 C5.95407727,0.12796459 5.9588167,0.136427857 5.96287907,0.145568184 C6.45171735,1.01186815 7.13284104,1.7864263 7.99846394,2.39950533 C8.86713362,3.01427701 9.82889923,3.39986343 10.8119923,3.57149848 C10.8187629,3.57217554 10.825872,3.57319113 10.8326426,3.57488379 C10.8539701,3.57996175 10.8742819,3.58910207 10.8932396,3.60196624 C10.9484201,3.64157433 10.9731329,3.70724927 10.9633155,3.76953892 L10.9609458,3.78172602 L9.83939368,9.80926445 L9.83736249,9.8197589 C9.83262306,9.84413311 9.82246714,9.86783025 9.8065562,9.88814209 C9.76864077,9.93926022 9.70770525,9.96295737 9.64880091,9.95652528 C9.64304589,9.95550969 9.63898352,9.9544941 9.63390556,9.95347851 L9.63458263,9.95381704 C7.76047688,9.61460932 5.90769857,8.86679509 4.25059099,7.69412487 C2.59314487,6.52111613 1.28201562,5.04106008 0.338869192,3.38564515" id="path44"></path>
                </g>
                <g id="morado" transform="translate(0.532496, 11.890514)" fill="#3456AC">
                    <path d="M1.01559198,0.338530661 C1.04030472,0.283011633 1.0941311,0.241710892 1.15879045,0.235955871 C1.18858115,0.233586156 1.21735626,0.239002647 1.24308459,0.250174159 L6.9645913,2.45502436 L6.97711693,2.46010232 C7.03568274,2.48481506 7.07766054,2.54101115 7.08172291,2.60804022 C7.08239997,2.62936765 7.08003025,2.64967949 7.07427523,2.66897574 C7.07122846,2.67845459 7.06784315,2.68725639 7.06310372,2.69605819 C6.69376677,3.61956983 6.51569964,4.63550035 6.58002047,5.69442426 C6.64400276,6.75673347 6.94529505,7.74761272 7.42702418,8.62237595 C7.43108655,8.62779244 7.43447186,8.63388599 7.4371801,8.63997954 C7.44632043,8.65995285 7.45241398,8.68161881 7.45410664,8.70396184 C7.458169,8.77234503 7.42194622,8.83260349 7.36744279,8.86408684 L7.3566098,8.86984186 L1.95399898,11.7686799 L1.94452012,11.7734193 C1.92251563,11.7852679 1.89814142,11.7920385 1.87207456,11.7923771 C1.80809226,11.7947468 1.75155764,11.7622478 1.72007429,11.7118068 C1.71702752,11.7074059 1.71499633,11.7033435 1.71262662,11.6986041 L1.71330368,11.6992811 C0.804348852,10.0259241 0.227492605,8.11254877 0.104944505,6.08678129 C-0.0179421251,4.05965969 0.315172046,2.11073867 1.01525345,0.339884784" id="path48"></path>
                </g>
                <g id="azul" transform="translate(0.018369, 2.320252)" fill="#4C81CB">
                    <path d="M8.8017972,0.338530661 C8.86070153,0.322958251 8.92637648,0.339884784 8.97106253,0.386940546 C8.99137437,0.408606508 9.00525413,0.434673369 9.01202474,0.461417292 L10.836705,6.31562802 L10.8400903,6.32883072 C10.8573554,6.39010477 10.8397518,6.45747237 10.7893107,6.50283548 C10.7730612,6.51671523 10.7554576,6.52720968 10.737177,6.53465736 C10.7280367,6.53804267 10.7182193,6.54075091 10.7087404,6.54244356 C9.75543807,6.82647079 8.84851443,7.31835584 8.05804534,8.02588492 C7.26554506,8.73578372 6.67582464,9.58752686 6.28956116,10.5079917 C6.28719144,10.5144238 6.28482173,10.5208559 6.28143642,10.527288 C6.27195757,10.5469228 6.25841634,10.5652034 6.24216687,10.5797602 C6.19104874,10.6258004 6.12131142,10.6349407 6.06274562,10.6112436 L6.0515741,10.6065042 L0.424517449,8.17179164 L0.41470006,8.16705221 C0.392018506,8.15689629 0.371368136,8.14233947 0.354780133,8.12236616 C0.31387973,8.07361775 0.304000534,8.00895839 0.323635312,7.95310083 C0.325327966,7.9483614 0.32735915,7.9439605 0.329390334,7.93922107 L0.329390334,7.93989813 C1.07686603,6.18800196 2.21839142,4.54815944 3.73026936,3.19369826 C5.24282435,1.83889855 6.97779399,0.889997109 8.80112014,0.338869192" id="path52"></path>
                </g>
                <g id="verde" transform="translate(9.266214, 0.003991)" fill="#36B440">
                    <path d="M11.5100425,2.36971463 C11.5591294,2.40559888 11.5872275,2.46721146 11.5780872,2.53187082 C11.5740248,2.56166152 11.5621762,2.58840544 11.5459267,2.61040993 L8.12845971,7.70157255 L8.12033498,7.71274406 C8.08343513,7.76453925 8.01979137,7.79297583 7.95343936,7.78180432 C7.93211193,7.77875754 7.91281568,7.7716484 7.89521209,7.76149248 C7.88708735,7.75641452 7.87862408,7.75065949 7.87185347,7.74456594 C7.05260927,7.1798968 6.10099958,6.78144621 5.05426278,6.60947263 C4.00414066,6.436822 2.97094509,6.51062168 2.01188772,6.7868627 C2.00545564,6.78957095 1.99834649,6.7912636 1.99191441,6.79261772 C1.97024845,6.79769568 1.94790543,6.79871127 1.92590093,6.79532597 C1.8581948,6.78381593 1.8074152,6.73574457 1.78879602,6.67480905 L1.78574924,6.66329901 L0.155385574,0.752892191 L0.153015859,0.742397741 C0.146583776,0.718362064 0.145229654,0.693310795 0.150307614,0.667243934 C0.162494718,0.604954292 0.206842234,0.556882938 0.263038324,0.536909629 C0.267777753,0.535216976 0.272178652,0.534201384 0.277256612,0.533185792 L0.27657955,0.533185792 C2.10972308,0.0176035944 4.10299162,-0.121193977 6.10607754,0.208196357 C8.11017906,0.53758669 9.93655198,1.29386419 11.5093654,2.36903757" id="path56"></path>
                </g>
                <g id="amarillo" transform="translate(19.081572, 1.350091)" fill="#F6E81B">
                    <path d="M9.47895203,10.1559198 C9.48088971,10.2165168 9.44974488,10.2767753 9.39388733,10.3099513 C9.368159,10.3248466 9.34006095,10.3322943 9.31162437,10.3333099 L3.19877622,10.8102996 L3.18523499,10.8109767 C3.12192976,10.8140235 3.05997865,10.781863 3.02714117,10.7222816 C3.01698526,10.7036625 3.01021464,10.6840277 3.00784493,10.6643929 C3.00615227,10.6545755 3.00547521,10.6447581 3.00615227,10.6352793 C2.94115439,9.64236883 2.66322071,8.64911987 2.14933117,7.72120733 C1.63341044,6.79024801 0.934344626,6.02584577 0.123225161,5.44492716 C0.116793078,5.44154185 0.111038057,5.43714095 0.105960097,5.43274006 C0.089033564,5.4188603 0.0741382149,5.4022723 0.062966703,5.38196046 C0.0301292289,5.32237906 0.0362227808,5.25264174 0.0727840922,5.20050802 L0.0795547054,5.19069063 L3.70487956,0.246111791 L3.71165017,0.237648524 C3.72654552,0.217675215 3.74550324,0.201087213 3.76852332,0.18923864 C3.82539647,0.159786472 3.89073289,0.164525901 3.94083543,0.196009253 C3.9448978,0.199056029 3.94862164,0.201764274 3.952684,0.205149581 L3.95234547,0.205149581 C5.49367557,1.32331636 6.83865789,2.80100269 7.82276653,4.57591895 C8.80755222,6.35252786 9.34683156,8.25439312 9.47895203,10.1545657" id="path60"></path>
                </g>
                <g id="naranja" transform="translate(21.509819, 12.469469)" fill="#F37021">
                    <path d="M4.73942926,10.8329812 C4.69305056,10.8729278 4.62703708,10.8868075 4.56576303,10.864126 C4.53800352,10.8536315 4.5146449,10.8363665 4.49602572,10.8153776 L0.27657955,6.36573056 L0.267439223,6.35557464 C0.22512289,6.30818035 0.210904602,6.23979715 0.236632932,6.17716898 C0.245096199,6.15719567 0.25592918,6.13993061 0.269470407,6.12571232 C0.27624102,6.11826464 0.283688694,6.11149403 0.290797838,6.10607754 C1.02168554,5.43037034 1.61885362,4.58912165 2.01628862,3.60535154 C2.41440068,2.61921173 2.5680936,1.59481795 2.5085122,0.598183679 C2.50749661,0.591413066 2.50715808,0.584303922 2.50749661,0.577533308 C2.50749661,0.555867346 2.51155898,0.533185792 2.51934518,0.512535421 C2.54541204,0.449568718 2.60363932,0.409960631 2.66626749,0.405221202 L2.67845459,0.405221202 L8.80281279,0.108329812 L8.81364577,0.108329812 C8.83835851,0.10731422 8.86340978,0.111715118 8.88710693,0.122209569 C8.94567273,0.147599368 8.9829111,0.201087213 8.99035878,0.260330079 C8.99069731,0.265746569 8.99069731,0.270147468 8.99069731,0.275563958 L8.99069731,0.274886897 C9.09225651,2.17607509 8.79096422,4.1514015 8.03130141,6.03363198 C7.27130008,7.91653952 6.13315999,9.53302343 4.74010632,10.8323041" id="path64"></path>
                </g>
                <g id="rojo" transform="translate(15.190772, 20.661437)" fill="#ED272D">
                    <path d="M0.338530661,8.12473588 C0.278949265,8.1128873 0.226815543,8.06921685 0.207180765,8.00726574 C0.198378968,7.97882916 0.197363376,7.94971552 0.202779866,7.92229454 L1.09887053,1.85616362 L1.10124024,1.84296092 C1.11241175,1.78067128 1.15777486,1.72718343 1.22277275,1.70856425 C1.24308459,1.70280923 1.26373496,1.70043951 1.28336974,1.70280923 C1.29318713,1.70314776 1.30300452,1.70517894 1.31214484,1.70721013 C2.29456082,1.86496541 3.32538669,1.81553994 4.34402545,1.52101826 C5.36638805,1.22548099 6.26687961,0.713622634 7.01435531,0.0524722525 C7.01943327,0.0473942926 7.02451123,0.0423163327 7.03026625,0.0385924954 C7.04753131,0.0250512689 7.06682756,0.0145568184 7.08849352,0.00778620521 C7.154507,-0.0108329812 7.22085901,0.0104944505 7.26351387,0.0578887431 L7.27163861,0.067029071 L11.2852581,4.70185236 L11.2920287,4.70997709 C11.3079397,4.72893481 11.3201268,4.75161636 11.3265589,4.77666763 C11.3424698,4.83828021 11.3231736,4.90090839 11.2811958,4.94288619 C11.2771334,4.94627149 11.2737481,4.94931827 11.2696857,4.95270358 L11.2703628,4.95236505 C9.83702396,6.20594409 8.09697636,7.18836007 6.14703975,7.75269068 C4.19608755,8.31702129 2.22211526,8.41891902 0.339546253,8.12473588" id="path68"></path>
                </g>
                <g id="balon" transform="translate(10.036575, 9.814001)">
                    <g id="g70" transform="translate(0.038863, 0.054334)" fill="#FFFFFF">
                        <path d="M5.07795992,10.1559198 C2.33112213,10.1559198 0.0964812385,7.92127895 0.0964812385,5.17444116 C0.0964812385,2.4279419 2.33112213,0.192962477 5.07795992,0.192962477 C7.82445918,0.192962477 10.0594386,2.4279419 10.0594386,5.17444116 C10.0594386,7.92127895 7.82445918,10.1559198 5.07795992,10.1559198" id="path72"></path>
                    </g>
                    <g id="g74" fill="#050606">
                        <path d="M8.8017972,2.36971463 C8.87932072,2.57554127 8.9033564,2.81589804 8.9287462,3.00276697 C8.82820259,2.9059472 8.71784159,2.81285127 8.59901733,2.72686448 C8.24999222,2.47296648 7.87320759,2.30844058 7.51131832,2.23125559 L6.52991793,3.30067395 L6.51671523,3.29119509 L7.22729109,2.03219956 C7.04245335,1.70754866 6.76688939,1.39508486 6.41278632,1.13814008 C6.29430059,1.0521533 6.17242955,0.976322428 6.04886586,0.910308949 C6.23336507,0.877132944 6.46762829,0.825676283 6.68699616,0.834816611 C6.19646523,0.659796259 5.66768033,0.563315021 5.11689095,0.563315021 C4.56576303,0.563315021 4.03697814,0.659796259 3.54610868,0.835155142 C3.76581508,0.825676283 4.00109389,0.877132944 4.18593163,0.910308949 C4.06270647,0.976322428 3.9404969,1.0521533 3.82201117,1.13814008 C3.46824663,1.39508486 3.19234414,1.70754866 3.0075064,2.03186103 L3.71875932,3.29153362 L3.70555662,3.30168954 L2.72347917,2.23159412 C2.36125136,2.30844058 1.98480527,2.47296648 1.63578016,2.72686448 C1.51695589,2.81285127 1.40693343,2.9059472 1.30672835,3.00276697 C1.33177962,2.81488245 1.3558153,2.57351009 1.43401588,2.36666785 C0.819244201,3.15713695 0.451599902,4.14937032 0.451599902,5.2289446 C0.451599902,5.2797242 0.453631086,5.3305038 0.45532374,5.38128339 C0.511181299,5.16225406 0.638468828,4.9452559 0.730549167,4.77395939 C0.754923375,4.91241843 0.789792033,5.05155453 0.835155142,5.19136769 C0.971244468,5.608776 1.18384172,5.96897262 1.43807825,6.2469063 L2.84128784,5.96254054 L2.84670433,5.97777442 L1.53489802,6.57697369 C1.49698259,6.94394093 1.5369292,7.35187038 1.67031028,7.76081541 C1.71533486,7.90029005 1.76949977,8.03367113 1.83043529,8.159266 C1.65067551,8.07327921 1.41167286,7.9693503 1.23597545,7.8180271 C1.84702329,8.73205988 2.77256612,9.41724594 3.85721836,9.72056941 C3.65443849,9.60106809 3.47806402,9.40167353 3.33791232,9.25441269 C3.47637136,9.27370894 3.61956983,9.28386486 3.76649214,9.28386486 C4.2021811,9.28386486 4.60706377,9.19415424 4.94728709,9.04046131 L5.11045887,7.62201784 L5.12704687,7.62201784 L5.28988012,9.04147691 C5.62942637,9.19449277 6.03430904,9.28386486 6.46864388,9.28386486 C6.61522766,9.28386486 6.75876466,9.27370894 6.89756223,9.25441269 C6.757072,9.40099647 6.58137459,9.6000525 6.37893325,9.71989235 C7.46189284,9.41623035 8.38574302,8.73239841 8.99577527,7.82039681 C8.82075492,7.97002736 8.58344492,8.07327921 8.4043622,8.159266 C8.46529772,8.03367113 8.51946263,7.90029005 8.56482574,7.76081541 C8.69786829,7.35119331 8.73849196,6.94292534 8.69956094,6.57528104 L7.39012434,5.97675883 L7.39554083,5.96084789 L8.79807336,6.24521364 C9.05163283,5.96829556 9.26423008,5.60843747 9.39930382,5.19136769 C9.44500546,5.05155453 9.47953558,4.91174137 9.50390979,4.77395939 C9.5956516,4.94390178 9.72192354,5.15886875 9.77811963,5.37654397 C9.77981228,5.32745702 9.78218199,5.27837007 9.78218199,5.2289446 C9.78218199,4.15038591 9.41555329,3.15916813 8.8017972,2.36971463 M5.11689095,10.301488 C2.31961209,10.301488 0.044008986,8.02588492 0.044008986,5.2289446 C0.044008986,2.43200427 2.31961209,0.156062635 5.11689095,0.156062635 C7.91383127,0.156062635 10.1894344,2.43200427 10.1894344,5.2289446 C10.1894344,8.02588492 7.91383127,10.301488 5.11689095,10.301488" id="path76"></path>
                    </g>
                    <g id="g78" transform="translate(3.067833, 3.188383)" fill="#050606">
                        <polygon id="path80" points="0 2.70824529 0.783359951 0.297568451 3.31793901 0.297568451 4.10129896 2.70824529 2.05048022 4.19845726"></polygon>
                    </g>
                </g>
            </g>
        </g>
    </g>
</svg>