<?xml version="1.0" encoding="UTF-8"?>
<svg width="400px" height="401px" viewBox="0 0 400 401" version="1.1" xmlns="http://www.w3.org/2000/svg" xmlns:xlink="http://www.w3.org/1999/xlink">
    <title>Group Copy</title>
    <g id="Assets" stroke="none" stroke-width="1" fill="none" fill-rule="evenodd">
        <g id="Group-Copy" transform="translate(0.000000, 0.500000)" fill="#283149" fill-rule="nonzero">
            <g id="g24" transform="translate(126.293711, 65.739997) scale(-1, 1) rotate(-180.000000) translate(-126.293711, -65.739997) translate(55.793711, 0.239997)">
                <path d="M0.479999988,44.1599989 C0.107039997,43.4452789 0.128159997,42.5510389 0.606239985,41.837279 C0.827519979,41.509439 1.12079997,41.258399 1.44575996,41.087519 L71.4455982,0.40031999 L71.6054382,0.313439992 C72.3398382,-0.081599998 73.2647982,-0.0551999986 73.9895982,0.462239988 C74.2180781,0.627359984 74.4086381,0.823679979 74.5555181,1.04255997 C74.6270381,1.15199997 74.6918381,1.26383997 74.7422381,1.38143997 C81.198238,12.8203197 90.1910377,23.0524794 101.622717,31.1414392 C113.094237,39.261119 125.790237,44.3534389 138.769437,46.6214388 C138.863517,46.6271988 138.954237,46.6435188 139.041597,46.6660788 C139.324317,46.7303988 139.595037,46.8527988 139.840317,47.0193588 C140.576156,47.5435188 140.901116,48.4127988 140.769596,49.2369588 L140.740316,49.3939188 L125.930397,128.985117 L125.899677,129.122877 C125.837757,129.444477 125.706237,129.753597 125.495997,130.023357 C124.991037,130.702557 124.189437,131.014557 123.409917,130.927677 C123.341757,130.918077 123.284157,130.901757 123.217917,130.889277 L123.222237,130.891677 C98.4806375,126.415197 74.0159981,116.539677 52.1375987,101.054877 C30.2510392,85.5638379 12.9379197,66.0230383 0.484319988,44.1695989" id="path26"></path>
            </g>
            <g id="g28" transform="translate(52.821520, 163.785018) scale(-1, 1) rotate(-180.000000) translate(-52.821520, -163.785018) translate(3.821520, 87.285018)">
                <path d="M12.4799997,1.43999996 C12.8039997,0.699839983 13.5129597,0.158879996 14.3692796,0.081599998 C14.7647996,0.0494399988 15.1415996,0.122399997 15.4780796,0.271199993 L91.0295977,29.3846393 L91.1966377,29.4518393 C91.9646377,29.7772793 92.5238377,30.5174392 92.5756777,31.4044792 C92.5895977,31.6847992 92.5574377,31.9579192 92.4748777,32.2089592 C92.4383977,32.3337592 92.3879977,32.4542392 92.3275177,32.5665592 C87.4511978,44.7633589 85.1020779,58.1803185 85.9487979,72.1588782 C86.7969578,86.1863978 90.7790377,99.2750375 97.1337576,110.819037 C97.1870376,110.896317 97.2321576,110.974557 97.2686376,111.057117 C97.3948776,111.318237 97.4702376,111.603837 97.4956776,111.899517 C97.5446376,112.803837 97.0694376,113.598237 96.3460776,114.013437 L96.2044776,114.086397 L24.8692794,152.367836 L24.7444794,152.429756 C24.4531194,152.583836 24.1276794,152.673596 23.7854394,152.680772 C22.9415994,152.708636 22.1975994,152.281436 21.7785595,151.618076 C21.7406395,151.558076 21.7151995,151.501916 21.6830395,151.445756 L21.6859195,151.448636 C9.68783976,129.352797 2.07119995,104.092317 0.451199989,77.3380781 C-1.17071997,50.5747187 3.22895992,24.8404794 12.4742397,1.44815996" id="path30"></path>
            </g>
            <g id="g32" transform="translate(70.000000, 297.193559) scale(-1, 1) rotate(-180.000000) translate(-70.000000, -297.193559) translate(0.000000, 228.693559)">
                <path d="M112.319997,0.479999988 C113.099517,0.276959993 113.965437,0.495359988 114.555837,1.12367997 C114.826077,1.40927996 115.005597,1.75151996 115.099677,2.10719995 L139.187997,79.405438 L139.237437,79.579198 C139.461597,80.386558 139.228797,81.277918 138.564477,81.869758 C138.351357,82.0574379 138.121437,82.2004779 137.872317,82.2911979 C137.751357,82.3391979 137.627037,82.3742379 137.501757,82.4006379 C124.912317,86.1475178 112.936797,92.6423977 102.503037,101.986077 C92.0366377,111.360477 84.2491179,122.606877 79.148638,134.758077 C79.121758,134.844957 79.084318,134.931837 79.042078,135.010077 C78.915838,135.268317 78.739198,135.509277 78.520798,135.708477 C77.8478381,136.310877 76.9281581,136.437117 76.1548781,136.123197 L76.0060781,136.059837 L1.70735996,103.908957 L1.57871996,103.853277 C1.27727997,103.719837 1.00511997,103.520637 0.78527998,103.256157 C0.241439994,102.613917 0.115199997,101.761917 0.372959991,101.021757 C0.39839999,100.957437 0.425279989,100.902717 0.451679989,100.842237 L0.448799989,100.847997 C10.3190397,77.7235181 25.3924794,56.0663986 45.3547189,38.183039 C65.3284784,20.2924795 88.2326378,7.76303981 112.308957,0.484319988" id="path34"></path>
            </g>
            <g id="g36" transform="translate(196.950509, 347.676854) scale(-1, 1) rotate(-180.000000) translate(-196.950509, -347.676854) translate(120.950509, 296.176854)">
                <path d="M150.239996,31.1999992 C150.886076,31.6766392 151.256156,32.4935992 151.137116,33.3417592 C151.086716,33.7343992 150.932636,34.0843191 150.713756,34.3843191 L105.588957,101.607357 L105.480957,101.753277 C104.993277,102.434397 104.152317,102.814557 103.274877,102.667197 C102.998877,102.618237 102.741117,102.528477 102.514077,102.392637 C102.400317,102.327837 102.290877,102.252477 102.200157,102.170877 C91.3847977,94.7116776 78.816478,89.4523178 64.9972784,87.1790378 C51.1319987,84.9014379 37.4884791,85.8782379 24.8231994,89.5223978 C24.7391994,89.5588778 24.6465594,89.5871978 24.5582394,89.6039978 C24.2793594,89.6654378 23.9822394,89.6779178 23.6908794,89.6361578 C22.7995194,89.4849578 22.1236794,88.8441578 21.8841595,88.0478378 L21.8404795,87.8923178 L0.311039992,9.84863975 L0.277439993,9.71279976 C0.196319995,9.39599977 0.176639996,9.06383977 0.243839994,8.72591978 C0.40655999,7.8988798 0.989759975,7.26239982 1.72991996,7.00175982 C1.79279996,6.97967983 1.85279995,6.96527983 1.92047995,6.94991983 L1.91183995,6.94991983 C26.1153593,0.144959996 52.4385587,-1.68959996 78.886078,2.65967993 C105.346557,7.00463982 129.464637,16.9958396 150.227516,31.1942392" id="path38"></path>
            </g>
            <g id="g40" transform="translate(310.673386, 309.895862) scale(-1, 1) rotate(-180.000000) translate(-310.673386, -309.895862) translate(248.173386, 239.395862)">
                <path d="M124.801116,131.999997 C124.825437,132.804477 124.415997,133.600797 123.674397,134.035197 C123.336957,134.235837 122.963997,134.332317 122.593917,134.344797 L41.875679,140.642396 L41.696159,140.648156 C40.860959,140.690396 40.043519,140.264156 39.610559,139.482237 C39.476159,139.237917 39.389279,138.980157 39.355679,138.716637 C39.335999,138.587517 39.327359,138.455997 39.331679,138.329757 C38.473919,125.225757 34.8086391,112.102077 28.0233593,99.8529575 C21.2097595,87.5620778 11.9755197,77.4686381 1.26431997,69.7948783 C1.18175997,69.7502383 1.10591997,69.6935983 1.03871997,69.6321583 C0.81551998,69.4526383 0.619679985,69.2313583 0.473759988,68.9707183 C0.0379199991,68.1801583 0.119039997,67.2566383 0.598559985,66.5735983 L0.691199983,66.4420783 L48.5601588,1.15199997 L48.6455988,1.04255997 C48.8433588,0.779039981 49.0939188,0.556319986 49.4025588,0.40223999 C50.1508787,0.0124799997 51.0115187,0.081119998 51.6758387,0.495839988 C51.7319987,0.533759987 51.7809587,0.570239986 51.8318387,0.612479985 L51.8275187,0.608159985 C72.1780782,15.3758396 89.9395178,34.8854391 102.934557,58.3267185 C115.935837,81.779038 123.055197,106.890717 124.801116,131.986077" id="path42"></path>
            </g>
            <g id="g44" transform="translate(340.956665, 163.209338) scale(-1, 1) rotate(-180.000000) translate(-340.956665, -163.209338) translate(282.456665, 91.709338)">
                <path d="M59.9999985,142.079996 C59.3846385,142.607036 58.5115185,142.790876 57.7084786,142.491836 C57.3369586,142.349276 57.0287986,142.125116 56.7844786,141.844796 L1.07327997,83.0932779 L0.951359976,82.9583979 C0.39503999,82.3391979 0.208319995,81.430558 0.541919986,80.603518 C0.654239984,80.339998 0.79727998,80.115838 0.977759976,79.922398 C1.06511997,79.825918 1.16303997,79.739038 1.26095997,79.664638 C10.9127997,70.7419182 18.7929595,59.6351985 24.0407994,46.6502388 C29.2982393,33.6206392 31.3267192,20.0975995 30.5457592,6.93887983 C30.5275192,6.84767983 30.5246392,6.75071983 30.5275192,6.66095983 C30.5275192,6.37247984 30.5793592,6.08207985 30.6859192,5.80319985 C31.0281592,4.96943988 31.7990392,4.44911989 32.6284792,4.39055989 L32.7883192,4.38479989 L113.655357,0.466079988 L113.795517,0.466079988 C114.123357,0.453119989 114.451197,0.510719987 114.765117,0.653759984 C115.538877,0.984479975 116.027997,1.69535996 116.127837,2.47295994 C116.131677,2.54015994 116.131677,2.60495993 116.135997,2.67215993 L116.135997,2.66639993 C117.471837,27.7727993 113.496957,53.8545587 103.463517,78.709918 C93.4305577,103.573917 78.405118,124.915677 60.0086385,142.074236" id="path46"></path>
            </g>
            <g id="g48" transform="translate(272.989851, 72.743645) scale(-1, 1) rotate(-180.000000) translate(-272.989851, -72.743645) translate(198.989851, 17.743645)">
                <path d="M1.91999995,107.519997 C1.13087997,107.364957 0.445439989,106.792797 0.184799995,105.972477 C0.0671999983,105.596157 0.0527999987,105.210237 0.124319997,104.849757 L11.9572797,24.7507194 L11.9908797,24.5740794 C12.1377597,23.7527994 12.7377597,23.0491194 13.5916797,22.8052794 C13.8633597,22.7265594 14.1340796,22.6987194 14.3961596,22.7236794 C14.5262396,22.7337594 14.6582396,22.7558394 14.7787196,22.7855994 C27.7454393,24.8697594 41.355359,24.2164794 54.8097586,20.3270395 C68.3063983,16.4222396 80.200798,9.66479976 90.0695977,0.933599977 C90.1339177,0.866399978 90.2039977,0.80207998 90.2769577,0.751679981 C90.5039977,0.575039986 90.7607977,0.431999989 91.0478377,0.346559991 C91.9156777,0.0983999975 92.7974377,0.38159999 93.3609577,1.00511997 L93.4660777,1.12415997 L146.459516,62.3231984 L146.547836,62.4359984 C146.760476,62.6870384 146.919356,62.9798384 147.003356,63.3139184 C147.218876,64.1279984 146.959676,64.9550384 146.407676,65.5075184 C146.357276,65.5559984 146.307836,65.5919984 146.257436,65.6366384 L146.260316,65.6332784 C127.336797,82.1860779 104.360637,95.1551976 78.615358,102.608157 C52.8571187,110.057757 26.7868793,111.408957 1.93103995,107.522877" id="path50"></path>
            </g>
        </g>
    </g>
</svg>